<?xml version="1.0" encoding="UTF-8"?>
<svg id="Calque_1" data-name="Calque 1" xmlns="http://www.w3.org/2000/svg" viewBox="0 0 24.46 13.06">
  <defs>
    <style>
      .cls-1 {
        fill: #061a4d;
      }

      .cls-2 {
        fill: #ff88bd;
      }
    </style>
  </defs>
  <path class="cls-1" d="M11.67,3.79c.26-.16.44-.46.44-.79,0-.51-.42-.93-.93-.93h-1.92v3.52h2.11c.51,0,.93-.42.93-.93,0-.41-.26-.75-.63-.88M10.33,2.95h.34c.1,0,.19.11.19.24s-.08.24-.19.24h-.34v-.47h0ZM10.85,4.83h-.52v-.52h.52c.11,0,.21.12.21.26s-.09.26-.21.26"/>
  <polygon class="cls-1" points="16.21 2.08 15.67 3.63 15.25 2.08 14.29 2.08 13.87 3.63 13.33 2.08 12.02 2.08 13.25 5.6 14.31 5.6 14.77 3.88 15.22 5.6 16.28 5.6 17.51 2.08 16.21 2.08"/>
  <polygon class="cls-1" points="19.85 2.08 17.66 2.08 17.27 3.21 17.9 3.21 17.9 5.6 19.18 5.6 19.18 3.21 19.85 3.21 19.85 2.08"/>
  <path class="cls-2" d="M8.39,3.84c0,1.05-.85,1.91-1.91,1.91s-1.91-.85-1.91-1.91V.53l.57.33v2.98c0,.74.6,1.34,1.34,1.34s1.34-.6,1.34-1.34c0-.26-.07-.5-.2-.7-.11-.19-.27-.34-.46-.45h-.02s-.94-.56-.94-.56v-.66l1.24.71c.57.33.95.95.95,1.65"/>
  <path class="cls-2" d="M7.65,3.84c0,.65-.53,1.18-1.18,1.18s-1.18-.53-1.18-1.18V.96l.57.33v2.55c0,.34.27.61.61.61s.61-.27.61-.61c0-.23-.12-.42-.3-.53h0l-.58-.34v-.66l.32.18.55.32h0s0,0,0,0c.35.2.58.58.58,1.02"/>
  <path class="cls-1" d="M3.71,9.33h.64l-1.88-2.06-1.88,2.06h.64l.34-.38h1.82l.34.38h0ZM2.46,7.93l.59.66h-1.18l.59-.66ZM9.76,7.7h1.63c.32,0,.42.1.42.31,0,.19-.14.3-.42.3h-1.64v-.61h0ZM14.35,7.34h-.54v1.99h.54v-1.99ZM18.83,7.34v1.23l-2.23-1.23h-.54v1.99h.5v-1.47l2.78,1.53v-2.05h-.5ZM9.23,7.34v1.99h.54v-.67h1.74c.65,0,.9-.27.9-.67s-.27-.65-.87-.65h-2.3,0ZM6.04,8.97v-1.63h-.54v1.99h2.45l.15-.36h-2.06ZM21.58,8.97v-.48h2.18v-.36h-2.18v-.44h2.18v-.36h-2.72v1.99h2.69l.1-.36h-2.26ZM3.07,10.96h.64s0,0,0,0v.14s0,0,0,0h-.49s0,0,0,0v.49s0,0,0,0h.47s0,0,0,0v.14s0,0,0,0h-.47s0,0,0,0v.72s0,0,0,0h-.14s0,0,0,0v-1.52s0,0,0,0h0ZM4.03,11.97v-.49c0-.36.16-.55.41-.55s.41.18.41.54v.51c0,.36-.16.54-.41.54s-.41-.19-.41-.55h0ZM4.7,11.98v-.51c0-.27-.1-.39-.26-.39s-.26.12-.26.39v.51c0,.27.1.39.26.39s.26-.12.26-.39ZM5.24,10.96h.35c.25,0,.41.16.41.44,0,.21-.09.36-.24.42,0,0,0,0,0,0l.28.65s0,.01,0,.01h-.16s0,0,0,0l-.27-.63s0,0,0,0h-.19s0,0,0,0v.63s0,0,0,0h-.14s0,0,0,0v-1.52s0,0,0,0h0ZM5.39,11.69h.17c.17,0,.27-.1.27-.29s-.09-.29-.25-.29h-.19s0,0,0,0v.58s0,0,0,0ZM6.8,12.48l-.27-1.31h0v1.31s0,0,0,0h-.14s0,0,0,0v-1.52s0,0,0,0h.27s.01,0,.01,0l.24,1.24s0,0,0,0l.24-1.24s0,0,.01,0h.27s0,0,0,0v1.52s0,0,0,0h-.14s0,0,0,0v-1.3h0l-.27,1.3s0,0-.01,0h-.17s-.01,0-.01,0h0ZM7.79,12.07v-1.11s0,0,0,0h.14s0,0,0,0v1.11c0,.18.08.29.24.29s.25-.12.25-.29v-1.11s0,0,0,0h.14s0,0,0,0v1.11c0,.27-.16.45-.4.45s-.4-.17-.4-.45h0ZM8.97,12.48v-1.52s0,0,0,0h.14s0,0,0,0v1.37s0,0,0,0h.51s.01,0,0,.01l-.04.14s0,0,0,0h-.62s0,0,0,0ZM10.49,10.96l.34,1.52s0,0,0,0h-.15s-.01,0-.01,0l-.07-.34s0,0,0,0h-.43s0,0,0,0l-.07.34s0,0-.01,0h-.14s-.01,0,0,0l.34-1.52s0,0,.01,0h.22s.01,0,.01,0h0ZM10.19,11.99h.36s0,0,0,0l-.18-.85s0,0,0,0l-.18.85s0,0,0,0h0ZM11.9,11.97v-.49c0-.36.16-.55.41-.55s.41.18.41.54v.51c0,.36-.16.54-.41.54s-.41-.19-.41-.55h0ZM12.57,11.98v-.51c0-.27-.1-.39-.26-.39s-.26.12-.26.39v.51c0,.27.1.39.26.39s.26-.12.26-.39ZM13.71,12.48l-.46-1.26s0,0,0,0v1.25s0,0,0,0h-.12s0,0,0,0v-1.52s0,0,0,0h.19s0,0,0,0l.47,1.3s0,0,0,0v-1.29s0,0,0,0h.12s0,0,0,0v1.52s0,0,0,0h-.21s0,0,0,0h0ZM14.3,12.48v-1.52s0,0,0,0h.64s0,0,0,0v.14s0,0,0,0h-.49s0,0,0,0v.49s0,0,0,0h.47s0,0,0,0v.14s0,0,0,0h-.47s0,0,0,0v.57s0,0,0,0h.51s.01,0,0,.01l-.04.14s0,0,0,0h-.62s0,0,0,0h0ZM17.3,12.48v-1.37s0,0,0,0h-.28s0,0,0,0v-.14s0,0,0,0h.73s0,0,0,0v.14s0,0,0,0h-.28s0,0,0,0v1.37s0,0,0,0h-.14s0,0,0,0h0ZM18.08,12.48v-1.52s0,0,0,0h.64s0,0,0,0v.14s0,0,0,0h-.49s0,0,0,0v.49s0,0,0,0h.47s0,0,0,0v.14s0,0,0,0h-.47s0,0,0,0v.57s0,0,0,0h.51s.01,0,0,.01l-.04.14s0,0,0,0h-.62s0,0,0,0h0ZM19.62,10.96l.34,1.52s0,0,0,0h-.15s-.01,0-.01,0l-.07-.34s0,0,0,0h-.43s0,0,0,0l-.07.34s0,0-.01,0h-.14s-.01,0,0,0l.34-1.52s0,0,.01,0h.22s.01,0,.01,0h0ZM19.32,11.99h.36s0,0,0,0l-.18-.85s0,0,0,0l-.18.85s0,0,0,0h0ZM20.73,12.48l-.27-1.31h0v1.31s0,0,0,0h-.14s0,0,0,0v-1.52s0,0,0,0h.27s.01,0,.01,0l.24,1.24s0,0,0,0l.24-1.24s0,0,.01,0h.27s0,0,0,0v1.52s0,0,0,0h-.14s0,0,0,0v-1.3h0l-.27,1.3s0,0-.01,0h-.17s-.01,0-.01,0h0ZM15.38,11.23v-.21s0,0,0,0h-.11s0,0,0,0v-.05s0,0,0,0h.3s0,0,0,0v.05s0,0,0,0h-.11s0,0,0,0v.21s0,0,0,0h-.05s0,0,0,0h0ZM15.82,11.23l-.11-.23s0,0,0,0v.23s0,0,0,0h-.05s0,0,0,0v-.27s0,0,0,0h.1s0,0,0,0l.1.2s0,0,0,0l.1-.2s0,0,0,0h.1s0,0,0,0v.27s0,0,0,0h-.05s0,0,0,0v-.23s0,0,0,0l-.11.23s0,0,0,0h-.07s0,0,0,0h0Z"/>
</svg>