<?xml version="1.0" encoding="UTF-8"?>
<svg id="Calque_1" data-name="Calque 1" xmlns="http://www.w3.org/2000/svg" viewBox="0 0 1890.97 654.98">
  <path d="M1733.83,194.07c-33.36,0-60.57,27.23-60.57,60.59s27.21,60.59,60.57,60.59,60.22-27.23,60.22-60.59-26.88-60.59-60.22-60.59M1733.83,287.67c-18.39,0-33.01-14.98-33.01-33.02s14.62-32.67,33.01-32.67,32.67,14.64,32.67,32.67-14.64,33.02-32.67,33.02"/>
  <path d="M1511.99,192.72c-13.28,0-26.89,2.73-37.79,7.15-8.84-5.11-17.36-7.15-29.61-7.15-15.31,0-30.96,2.04-47.97,7.82l-3.08,1.02v111.29h30.28v-91.21c6.14-2.04,10.9-2.73,17.03-2.73,14.97,0,19.39,4.78,19.39,20.43v73.52h30.62v-75.55c0-6.8-.34-11.24-1.34-15.31,6.11-2.04,10.89-3.07,16.32-3.07,14.31,0,20.77,6.47,20.77,20.43v73.52h30.3v-75.9c0-14.97-2.39-23.81-9.19-31.32-7.5-8.17-20.09-12.92-35.73-12.92"/>
  <path d="M1633.39,288.88c-20.19,0-31.75-12.52-31.75-34.41s11.71-35.26,32.05-35.26c4.23,0,7.8.45,11.19,1.45,0,0,6.27,1.78,11.78,6.1l12.81-21.98c-6.98-5.82-15.21-8.34-17.99-9.06-7.88-2.37-19.41-2.73-19.41-2.73-36.43,0-60.85,25.28-60.85,62.82s23.17,59.42,59.12,59.42c0,0,24.07,1.07,40.23-13.92l-15.09-19.37c-8.18,5.22-13.85,6.96-22.08,6.96"/>
  <path d="M1238.52,193.74c-43.24,0-63.3,19.06-63.3,59.57v59.55h30.96v-59.9c0-20.43,11.58-33.01,29.61-33.01,7.5,0,13.28,1.36,17.36,2.38l7.15-26.88c-11.99-1.73-21.78-1.71-21.78-1.71"/>
  <path d="M1375.85,249.91v62.95h-41.52c-28.59,0-41.18-2.05-56.15-11.91-12.95-8.86-20.09-25.54-20.09-47.31,0-29.96,19.73-60.24,63.3-60.24,35.4,0,54.46,19.75,54.46,56.51M1345.56,253.29c0-22.81-8.86-34.03-26.54-34.03s-29.61,13.28-29.61,33.34c0,24.17,11.56,34.74,37.43,34.74h18.72v-34.05h0Z"/>
  <path d="M1158.37,249.89v62.97h-41.18c-28.59,0-41.2-2.05-56.15-11.91-12.94-8.86-20.09-25.54-20.09-47.31,0-29.96,19.73-60.24,63.3-60.24,35.4,0,54.12,19.75,54.12,56.49M1127.06,253.29c0-23.14-8.17-34.03-26.2-34.03s-29.61,13.28-29.61,33.34c0,24.17,11.58,34.74,37.42,34.74h18.39v-34.05Z"/>
  <path d="M324.07,246.16h8.9l-4.45-11.54-4.45,11.54ZM314.78,257.48l12.96-30.85h3.37l12.96,30.85h-6.78l-2.98-7.73h-11.62l-3.03,7.73h-4.88ZM345.93,256.06l-.52-5.57c2.97,2.51,6.09,3.76,9.38,3.76,1.87,0,3.28-.37,4.23-1.1,1.82-1.4,1.82-3.88.5-5.44-1.12-1.33-3.08-2.15-7.76-4.39-4.15-1.99-6.22-4.88-6.22-8.68,0-2.65.91-4.76,2.72-6.33,3.98-3.44,10.55-2.13,11.21-2.01,1.25.23,2.47.59,3.65,1.08l.52,5.31c-1.41-1.01-2.73-1.74-3.95-2.2-4.21-1.58-8.71-.51-8.71,3.11,0,1.77,1.14,2.98,3.5,4.19,5.42,2.74,7.98,3.8,9.92,6.24,2.37,2.99,2.5,8.78-1.32,11.8-1.99,1.57-4.74,2.35-8.25,2.35-4.61,0-7.69-1.44-8.9-2.12ZM375.31,257.48v-27.09c-2.53.05-5.2.23-9.25.74l.35-4.49h23.72l.35,4.49c-5.12-.64-7.87-.71-9.29-.74v27.09h-5.88ZM406.16,254.41c4.8,0,9.16-3.84,9.16-12.36,0-.71.18-7.54-4.3-10.85-1.37-1.01-2.99-1.51-4.86-1.51-6.41,0-9.16,5.95-9.16,12.36,0,8.46,4.34,12.36,9.16,12.36ZM406.16,258.17c-9.21,0-15.56-6.68-15.56-16.12s6.41-16.12,15.56-16.12,15.56,6.54,15.56,16.12-6.34,16.12-15.56,16.12ZM426.47,257.48v-30.85h3.2l18.45,20.96v-20.96h4.36v30.85h-3.24l-18.41-21v21h-4.36ZM468.91,257.48l3.46-30.85h3.15l10.97,21.52,10.59-21.52h3.15l3.46,30.85h-6.27l-1.77-19.06-8.64,17.8h-2.85l-8.77-17.59-1.77,18.84h-4.71,0ZM515.62,246.16h8.9l-4.45-11.54-4.45,11.54ZM506.33,257.48l12.96-30.85h3.37l12.96,30.85h-6.78l-2.98-7.73h-11.62l-3.03,7.73h-4.88,0ZM544.27,240.67c.84.14,1.66.22,2.46.22,5.03,0,6.27-2.89,6.27-5.4,0-3.78-2.68-5.36-6.52-5.36-.69,0-1.43.04-2.2.13v10.41h0ZM538.39,257.48v-30.59c1.71-.21,3.78-.39,6.91-.39,2.77,0,5.17.32,7.22.97,2.97.94,6.48,3.07,6.48,7.71,0,1.93-.6,3.65-1.79,5.16-1.2,1.51-2.86,2.59-4.99,3.22l10.84,13.91h-7.13l-9.68-13.18h-1.99v13.18h-5.88ZM570.32,257.48v-27.09c-2.53.05-5.2.23-9.25.74l.35-4.49h23.72l.35,4.49c-5.1-.63-7.86-.71-9.29-.74v27.09h-5.88ZM589.51,226.63h5.88v30.85h-5.88v-30.85ZM601.43,257.48v-30.85h3.2l18.45,20.96v-20.96h4.36v30.85h-3.24l-18.41-21v21h-4.36Z"/>
  <path d="M847.52,190.53c-1.99-3.53-5.91-5.55-10.75-5.55h-303.47c-5.12,0-12.86,0-20.91,8.05-2.63,2.64-4.1,5.25-5.39,7.56-2.5,4.47-4.3,7.69-12.6,7.69h-44.22c-8.3,0-10.1-3.23-12.6-7.69-1.29-2.31-2.75-4.93-5.39-7.56-8.05-8.05-15.79-8.05-20.91-8.05H107.83c-4.84,0-8.76,2.02-10.75,5.55-1.99,3.52-1.74,8.02.68,12.03l5.47,9.12c2.95,5.04,6.83,5.82,9.67,6.39,2.58.52,4.13.83,6.13,4.32l4.81,8.46c3.73,6.92,8.23,7.77,11.51,8.39,2.53.47,4.91.69,8.12,6.53,3.13,5.69,7.85,14.29,19.31,17.71,1.13.33,113.08,32.98,113.22,33.02,11.79,3.82,14.88,8.17,18.56,13.62,2.19,3.23,7.99,11.8,22.38,15.68l107.66,29.09c11.52,3.11,18.8-2.53,22.16-5.5l19.53-18.49c2.68-2.54,4.37-3.53,6.01-3.53s3.33.99,6.01,3.53l19.53,18.49c3.38,2.99,10.67,8.59,22.16,5.49l107.66-29.09c14.39-3.87,20.2-12.45,22.38-15.68,3.66-5.38,6.68-9.77,18.56-13.62.14-.04,112.09-32.69,113.22-33.02,11.46-3.42,16.19-12.02,19.31-17.71,3.07-5.59,5.37-6.01,7.8-6.47,3.24-.61,7.96-1.29,11.82-8.45l4.81-8.46c1.99-3.49,3.55-3.8,6.13-4.32,2.84-.57,6.72-1.35,9.67-6.39l5.47-9.12c2.41-4.02,2.67-8.51.68-12.03h0ZM640.25,215.48v53.15h-335.91v-53.15h335.91ZM519.77,346.73c-8.29,0-11.15-7.1-13.26-12.68-2.4-6.35-15.71-48.15-19.39-59.63h16.55c9.02,15.14,25.28,42.32,32.39,53.46,1.27,1.98,4.86,8.16,11.41,11.93-25.53,6.9-24.88,6.91-27.7,6.91h0ZM558.96,336.01c-9.28,0-14.15-7.17-17.11-11.81-6.08-9.53-19.86-32.45-30.19-49.78h18.39c11.6,12.33,36.14,38.36,45.79,48.01,1.46,1.46,4.58,4.77,9.08,7.27-22.37,6.04-22.47,6.31-25.96,6.31h0ZM596.57,325.98c-7.23,0-12.29-4.79-15.89-8.4-8.5-8.5-28.69-29.85-41.23-43.16h20.12c12.8,9.41,42.32,31.05,53.91,38.97,2.14,1.46,6.32,4.03,11.23,5.56-25.96,7.02-25.4,7.04-28.14,7.04h0ZM643.92,305.98c-3.33,4.93-5.78,7.37-11.4,7.37-5.17,0-10.75-2.6-15.17-5.62-9.61-6.57-31.74-22.7-46.21-33.31h23.94c29.35,14.66,41.67,21.19,50.1,23.65,1.52.44,2.91.75,4.22.94-2.19,2.21-3.74,4.45-5.48,6.98h0ZM652.83,292.42c-6.72,0-15.44-4.44-42.45-18h26.17l36.69,9.36c2.5.65,4.8,1.2,6.94,1.65-20.55,5.99-23.67,6.98-27.35,6.98ZM724.55,272.49c-21.7,6.33-25.2,7.71-31.34,7.71-4.09,0-9.47-.77-18.25-3.05h-.02s-28.9-7.38-28.9-7.38v-10.33l78.51,13.05h0ZM746.95,265.96c-6.92,1.73-13.35,1.16-23.51-.59h-.02s-77.38-12.87-77.38-12.87v-8.22l126.53,14.21-25.62,7.47h0ZM794.66,242.22c-.98,1.78-1.96,3.49-3.04,5.08-4.41,5.98-7.13,5.67-20.69,4.12l-124.9-14.03v-7.75l144.03,8.44c1.09.06,4,.26,6.96.44-.79,1.05-1.58,2.27-2.36,3.7ZM819.16,218.73s-2.66,4.68-4.02,7.08c-4.18,6.79-6.27,6.68-18.49,5.83l-150.61-8.86v-6.24h174.55c-.48.65-.96,1.38-1.42,2.19h0ZM840.51,198.76l-3.95,6.59c-2.76,4.34-3.85,4.34-13.18,4.34h-313.56c3.36-3.83,4.21-7.84,7.8-11.43,5.9-5.9,11.01-5.88,15.68-5.88h303.47c2.1,0,3.67.65,4.32,1.8.66,1.17.44,2.88-.58,4.59h0ZM440.39,345.07c1.31-1.92,2.52-4.42,4.1-8.61,2.46-6.52,16.25-49.79,20.17-62.04h15.28c3.92,12.25,17.71,55.52,20.17,62.04,1.58,4.2,2.8,6.7,4.1,8.61-.46-.35-.93-.73-1.39-1.14l-19.43-18.4c-3.05-2.88-6.5-5.55-11.09-5.55s-8.04,2.67-11.09,5.55l-19.44,18.4c-.46.41-.93.78-1.39,1.13h0ZM397.12,339.81c6.55-3.78,10.14-9.95,11.41-11.93,7.11-11.14,23.37-38.32,32.39-53.46h16.55c-3.67,11.48-16.99,53.27-19.39,59.63-2.1,5.58-4.97,12.68-13.26,12.68-2.82,0-2.17-.02-27.7-6.91h0ZM359.68,329.7c4.5-2.5,7.62-5.81,9.08-7.27,9.65-9.65,34.19-35.67,45.79-48.01h18.39c-10.33,17.32-24.1,40.25-30.19,49.78-2.96,4.64-7.83,11.81-17.11,11.81-3.48,0-3.59-.27-25.96-6.31ZM319.88,318.94c4.91-1.53,9.09-4.09,11.23-5.56,11.59-7.92,41.12-29.56,53.91-38.97h20.12c-12.54,13.32-32.73,34.67-41.23,43.16-3.6,3.61-8.66,8.4-15.89,8.4-2.74,0-2.19-.02-28.14-7.04h0ZM295.19,299.01c1.31-.19,2.7-.5,4.22-.94,8.43-2.46,20.75-8.99,50.1-23.65h23.94c-14.47,10.61-36.59,26.74-46.21,33.31-4.42,3.02-10.01,5.62-15.17,5.62-5.62,0-8.07-2.44-11.4-7.37-1.74-2.53-3.3-4.76-5.48-6.98h0ZM264.41,285.43c2.14-.45,4.44-1,6.94-1.65l36.69-9.36h26.17c-27.01,13.56-35.74,18-42.45,18-3.68,0-6.8-.99-27.35-6.98ZM298.56,259.44v10.33l-28.9,7.38h-.02c-8.78,2.29-14.16,3.06-18.25,3.06-6.13,0-9.64-1.38-31.34-7.71l78.51-13.05h0ZM172.03,258.49l126.53-14.21v8.22l-77.38,12.86h-.02c-10.17,1.75-16.59,2.32-23.51.6l-25.62-7.47h0ZM147.57,238.52c2.96-.18,5.87-.38,6.96-.44l144.03-8.44v7.75l-124.9,14.03c-13.56,1.55-16.29,1.86-20.69-4.12-1.08-1.59-2.06-3.3-3.04-5.08-.79-1.44-1.58-2.66-2.36-3.7ZM124.01,216.54h174.55v6.24l-150.61,8.86c-12.21.85-14.31.95-18.49-5.83-1.36-2.4-4-7.03-4.02-7.08-.47-.82-.94-1.55-1.42-2.19h0ZM103.51,194.17c.64-1.14,2.22-1.8,4.32-1.8h303.47c4.68,0,9.78-.02,15.68,5.88,3.59,3.6,4.44,7.61,7.8,11.43H121.22c-9.33,0-10.42,0-13.18-4.34l-3.95-6.59c-1.02-1.7-1.24-3.42-.58-4.59Z"/>
  <path d="M941.52,274.77c0,67.78.46,68.34,3.07,157.04h.58c2.61-88.69,3.11-93.88,3.11-161.46,0-24.99-.08-91.25-3.11-194.17h-.58c-2.08,70.86-3.07,102.42-3.07,198.6h0Z"/>
  <path d="M869.48,507.27h-5.18l-31.56,70.83h12.06c1.24-4.21,2.62-9.04,6.87-19.79h25.75c3.15,7.7,5.58,14.61,7.44,19.79h15.05l-30.43-70.83h0ZM864.59,527.81c7.64,17.57,7.74,17.66,9.54,22.27h-19c2-4.64,2.04-4.75,9.45-22.27"/>
  <path d="M1350.42,507.27h-5.18l-31.56,70.83h12.06c1.24-4.21,2.62-9.04,6.87-19.79h25.75c3.15,7.7,5.58,14.61,7.44,19.79h15.05l-30.43-70.83ZM1345.53,527.81c7.64,17.57,7.74,17.66,9.54,22.27h-19c2-4.64,2.04-4.75,9.45-22.27"/>
  <path d="M688.45,578.1c-1.81-22.03-3.12-35.23-4.1-43.95-11.89,21.42-17.07,31.88-21.87,42.93h-3.98c-12.03-24.57-13.29-26.95-16.07-32.17-1.2-2.25-2.53-4.76-5.43-10.37-.51,4.37-2.69,23.79-4.12,43.56h-10.86c3.45-24.91,8.89-66.98,9.2-69.42h6.44c.97,1.95,1.92,3.84,2.84,5.68,7.95,15.9,14.24,28.46,21.86,41.48l.11.19.11-.19c3.44-6.3,6.56-12.18,9.58-17.86,4.67-8.81,9.51-17.92,15.92-29.3h5.79c.25,2.2,4.19,36.51,8.26,69.42h-13.66,0Z"/>
  <path d="M1452.25,578.1c-1.82-22.03-3.12-35.23-4.1-43.95-11.89,21.42-17.07,31.88-21.87,42.93h-3.98c-12.03-24.57-13.29-26.95-16.07-32.17-1.2-2.25-2.53-4.76-5.43-10.37-.51,4.37-2.69,23.79-4.12,43.56h-10.86c3.45-24.91,8.89-66.98,9.2-69.42h6.44c.97,1.95,1.92,3.84,2.84,5.68,7.95,15.9,14.24,28.46,21.86,41.48l.11.19.11-.19c3.44-6.3,6.56-12.18,9.58-17.86,4.67-8.81,9.51-17.92,15.92-29.3h5.79c.25,2.2,4.19,36.51,8.26,69.42h-13.66Z"/>
  <path d="M511.39,580.47c-14.5,0-22.98-7.68-25.06-9.65-5.9-5.57-11-14.51-11-27.43s5.11-21.86,11-27.43c2.08-1.97,10.57-9.65,25.06-9.65,8.77,0,25.7,3.66,33.06,21.29,1.99,4.76,3,10.08,3,15.79,0,12.93-5.11,21.86-11,27.43-2.08,1.97-10.57,9.65-25.06,9.65M511.42,572.21c10.76,0,21.65-9.9,21.65-28.82s-10.89-28.82-21.65-28.82h-.06c-10.76,0-21.65,9.9-21.65,28.82s10.89,28.82,21.65,28.82h.06Z"/>
  <path d="M970.02,580.47c-14.5,0-22.98-7.68-25.06-9.65-5.9-5.57-11-14.51-11-27.43s5.11-21.86,11-27.43c2.08-1.97,10.57-9.65,25.06-9.65,8.77,0,25.7,3.66,33.06,21.29,1.99,4.76,3,10.08,3,15.79,0,12.93-5.11,21.86-11,27.43-2.08,1.97-10.57,9.65-25.06,9.65M970.05,572.21c10.76,0,21.65-9.9,21.65-28.82s-10.89-28.82-21.65-28.82h-.06c-10.76,0-21.65,9.9-21.65,28.82s10.89,28.82,21.65,28.82h.06Z"/>
  <path d="M559.8,508.6c3.78-.25,19.57-.41,19.73-.41,11.88,0,16.53,2.32,20.55,6.34,3.75,3.75,5.73,8.67,5.59,13.85-.14,4.88-2.18,9.65-5.62,13.08-3.7,3.7-8.19,5.37-9.85,5.97l26.1,30.66h-15.9s-23.52-28.98-23.52-28.98l-4.25-.04.03,29.02h-12.87s0-69.48,0-69.48h0ZM577.89,515.81c-1.6,0-3.34.13-5.17.4l-.11.02v24.52l.1.02c1.85.34,3.63.51,5.29.51,10.41,0,15.15-6.66,15.15-12.85v-.02c0-.84-.15-5.2-3.51-8.57-2.66-2.67-6.61-4.02-11.76-4.02"/>
  <polygon points="788.48 578.09 788.48 508.65 801.37 508.65 801.37 568.89 830.06 568.89 830.05 578.09 788.48 578.09"/>
  <path d="M1071.93,578.1c-2.96-3.69-23.61-26.51-43.39-48.43v48.43h-10.04v-69.42h7.09l42.71,46.27v-46.27h9.98v69.42h-6.35,0Z"/>
  <path d="M1223.73,578.1v-60.02c-10.86.11-17.56.9-21.91,1.38v-10.78h55.75v10.82c-3.28-.4-9.5-1.27-20.95-1.41v60.01h-12.89Z"/>
  <path d="M1106.69,568.87v-22.37h24.79v-8.45h-24.79v-20.48c5.81,0,14.15-.02,28.28.87v-9.8h-41.17v69.42h42.31v-10.2c-9.33.54-20.1,1-29.42,1"/>
  <path d="M1279.49,568.87v-22.37h24.79v-8.45h-24.79v-20.48c5.81,0,14.15-.02,28.28.87v-9.8h-41.17v69.42h42.31v-10.2c-9.33.54-20.1,1-29.42,1"/>
  <path d="M761.72,508.65c.47,26.69.25,37.24.25,37.24,0,8.68-.53,24.3-17.32,24.3-5.94,0-17.84-.98-17.84-20.77,0-17.93.44-39.97.46-40.78h-13.53c0,.88.02,21.13.02,40.72,0,28.46,22.92,29.67,28.63,29.67,16.43,0,29.29-7.49,29.62-30.22l.1-40.17h-10.38Z"/>
  <path d="M467.3,518.55h0v-9.9h-42.23v69.44h12.89v-29.83h26.17v-9.08h-26.17v-21.58c12.97,0,20.53.37,29.34.95"/>
  <polygon points="1147.79 511.38 1142.47 511.38 1142.47 508.62 1156.55 508.62 1156.55 511.38 1151.19 511.38 1151.19 526.69 1147.79 526.69 1147.79 511.38"/>
  <path d="M1174.91,519.32c-.11-2.33-.25-5.15-.22-7.59h-.08c-.61,2.2-1.38,4.64-2.21,6.92l-2.71,7.83h-2.73l-2.49-7.72c-.72-2.31-1.38-4.77-1.88-7.03h-.06c-.08,2.36-.19,5.23-.33,7.7l-.42,7.27h-3.18l1.24-18.07h4.51l2.43,7.27c.66,2.12,1.24,4.26,1.72,6.28h.08c.5-1.96,1.13-4.18,1.85-6.3l2.57-7.24h4.49l1.08,18.07h-3.32l-.36-7.37h0Z"/>
</svg>