<svg width="500" height="80" version="1.1" viewBox="0 0 500 80" xmlns="http://www.w3.org/2000/svg">
 <g>
  <path d="m500 46.251c-0.0125 2.8885-1.397 5.8518-4.047 7.5539-3.0257 1.9404-7.0346 3.0118-11.28 3.0118-6.9105 0-14.698-3.2235-14.791-10.491v-1.1596h11.765s-0.0188 0.59519 0.17204 1.0626c0.39225 0.97012 1.7727 1.9227 3.1714 1.9227 1.7198 0 3.1697-0.7849 3.1697-1.7155 0-0.50698-0.20707-0.68344-0.63891-0.85988-0.7051-0.29096-1.8968-0.49822-3.2458-0.66142-2.8271-0.34839-6.6804-0.97888-10.196-3.228l-0.05-0.03503c-1.3225-0.93039-2.3057-1.9182-2.9976-3.0206-0.7763-1.2348-1.1686-2.6151-1.1686-4.0966 0-2.8663 1.5774-5.4504 4.4492-7.2761 1.3805-0.87743 3.0158-1.5566 4.8597-2.024 1.8555-0.46744 3.8848-0.66142 6.0233-0.66142h0.0375c1.5393 0.03503 3.1796 0.2072 4.7405 0.57767 1.733 0.41001 3.307 0.99213 4.6776 1.7285 1.5741 0.84664 2.8138 1.8654 3.6911 3.0295 0.99644 1.3228 1.4996 2.8091 1.4996 4.4186v1.2126h-12.518s0.0826-0.83787-0.25648-1.3493c-0.17579-0.28671-0.79782-0.80708-2.0591-0.80708-0.92199 0-1.4202 0.12793-1.8125 0.37041-0.20331 0.12349-0.43665 0.33519-0.43665 0.88206 0 0.30867 0.0793 0.64371 1.0328 1.0406 0.97823 0.40569 2.4464 0.70114 4.1446 1.0363 2.6633 0.52919 5.2967 0.86435 8.1751 2.3282l0.0438 0.0219s0.0375 0.0219 0.0438 0.02627c2.7907 1.5566 3.7921 3.9245 3.7788 7.1657m-97.596-19.068c-0.8872-0.57323-1.7645-1.0141-2.7609-1.4155-2.0326-0.81569-4.1811-1.1906-6.3858-1.1906h-0.0926c-2.2478 0.01314-4.431 0.41014-6.4818 1.2656-1.9763 0.82463-3.744 1.9932-5.2652 3.4837-1.5129 1.4816-2.698 3.2058-3.5272 5.1197-0.85574 1.98-1.2878 4.0745-1.2878 6.2396 0 2.1696 0.43729 4.2776 1.296 6.2618 0.83423 1.9182 2.0293 3.6469 3.5504 5.1285 1.5244 1.4905 3.3104 2.6591 5.295 3.4749 2.0641 0.85111 4.2556 1.2788 6.5133 1.2788 2.2577 0 4.3532-0.41445 6.3858-1.2348 0.97822-0.39675 1.887-0.85988 2.7609-1.4155v1.8874h11.315v-30.872h-11.315zm-0.4767 13.348c0 3.4485-3.14 6.2486-6.9982 6.253-3.8583 0-6.9982-2.8046-6.9982-6.253 0-1.6625 0.7233-3.228 2.0326-4.4053 1.3059-1.1731 3.0473-1.83 4.8994-1.8432h0.0663c3.8583 0 6.9982 2.8046 6.9982 6.253m-78-6.5177v22.04h11.317v-30.246h-4.767zm24.542-17.233h-11.317v39.273h11.317zm15.139 7.7876h11.315v-5.6797c0-1.1641-0.94345-2.1079-2.1087-2.1079h-9.2062zm11.315 1.2392h-11.315v30.246h11.315zm-13.225-9.0268h-11.315v39.273h11.315zm98.571 8.696c-2.7526-0.9524-5.919-1.1817-8.9033-0.63494-2.7393 0.49841-5.252 1.8477-7.364 3.4792-0.72-0.75395-1.5741-1.3978-2.559-1.927-1.3258-0.70992-2.8436-1.4288-4.5187-1.667-2.0822-0.29547-4.3085-0.194-6.4388 0.29115-1.1818 0.269-2.2925 0.8819-3.2939 1.3493v-1.1818h-11.315v30.868h11.315v-16.977c0-3.2323 2.4431-4.7053 4.714-4.7053 1.2001 0 2.3057 0.39694 3.1218 1.1113 0.9534 0.83786 1.4516 2.0814 1.4516 3.5895v16.977h11.315v-16.977c-0.0313-3.2013 2.117-4.7008 4.6743-4.7051 1.1604 0 2.223 0.41445 3.0026 1.1111 0.92193 0.82462 1.4069 2.0814 1.4069 3.5896v16.977h11.312l0.0125-20.465c0-2.2797-0.78785-4.4096-2.2842-6.1691-1.3788-1.6228-3.3336-3.1398-5.6525-3.9424m-144.75-8.6872-6.4238 7.7788h3.4395l-7.9814 9.9968v-17.771h-8.1536c-2.3024 0-4.0271 0.8996-5.1113 2.2754l-13.406 16.792v-19.068h-13.358v39.273h12.82l13.803-17.26v17.26h8.1138c3.4825 0 5.0037-0.55996 7.1124-3.1088l28.87-36.164h-19.728z"/>
  <path d="m498.16 66.214-5.9223 9.4898-5.9968-9.4898h-1.685v13.507h1.9714v-9.7896l5.199 8.1492h0.94845l5.199-8.211 0.0188 9.8513h1.9763l-0.025-13.507zm-25.772 1.9579 3.1002 6.6278h-6.2037l3.1002-6.6278zm-1.0096-1.9579-6.5133 13.511h2.1171l1.579-3.3778h7.6503l1.579 3.3778h2.1601l-6.5348-13.511zm-20.571 0v13.507h10.443v-1.6756h-8.3869v-4.3613h7.2134v-1.6403h-7.2134v-4.1496h8.0956v-1.6802zm-16.602 0v1.6802h4.9292v11.827h2.0376v-11.827h4.9292v-1.6802zm-18.341 0v1.6802h3.6034v11.827h2.0376v-13.507zm-13.475 0v13.507h2.0541v-5.4592h7.2151v-1.658h-7.2151v-4.7096h8.1006v-1.6802z"/>
  <path d="m250.12 0.27503c1.1736 24.09 1.1818 48.234 0 72.328-1.1818-24.09-1.1735-48.238 0-72.328z"/>
 </g>
 <path d="m201.46 24.564h-7.5015l-8.5276 24.562h6.548l1.2083-4.1408c1.4599 0.42772 3.0207 0.6879 4.5684 0.6879 1.5476 0 3.1002-0.26018 4.5684-0.6879l1.2083 4.1408h6.548zm-3.7093 15.941c-1.1206 0-2.1518-0.17197-3.1002-0.43203l3.1002-10.68 3.1002 10.68c-0.94846 0.26006-2.0673 0.43203-3.1002 0.43203zm-84.19-15.941h-7.5009l-8.621 24.562h6.5483l1.2083-4.1408c1.4596 0.42772 3.0208 0.6879 4.5685 0.6879 1.5478 0 3.1-0.26018 4.5684-0.6879l1.2083 4.1408h6.5485l-8.5329-24.562h-9e-3zm-3.7879 15.941c-1.1201 0-2.1519-0.17197-3.1-0.43203l3.1-10.68 3.1 10.68c-0.94811 0.26006-1.98 0.43203-3.1 0.43203zm-59.716-15.941h-7.5009l-8.5329 24.562h6.5485l1.2083-4.1408c1.4596 0.42772 3.0206 0.6879 4.5684 0.6879s3.1-0.26018 4.5685-0.6879l1.2083 4.1408h6.5483c-0.08821 0-8.621-24.562-8.621-24.562h-0.0088zm-3.7924 15.941c-1.1201 0-2.1519-0.17197-3.1-0.43203l3.1-10.68 3.1 10.68c-0.95257 0.26006-1.98 0.43203-3.1 0.43203zm12.144-15.95h18.873v5.2607h-6.8085v19.31h-5.7724v-19.301h-6.2926zm28.87 0.0088v19.222h7.8404l-1.8123 5.3402h-11.721v-24.562zm81.345 17.242c0 4.5684-2.751 7.6684-9.5595 7.6684-4.9125 0-7.5011-1.1201-9.481-2.0682v-5.8604c2.5004 1.4596 6.2883 2.5796 9.481 2.5796 2.7604 0 3.6203-0.77166 3.6203-2.0682 0-1.2964-0.85989-1.9005-4.7404-2.7604-6.6322-1.2921-8.2727-4.1319-8.2727-7.7523 0-4.4803 3.272-7.2407 9.653-7.2407 3.3601 0 6.209 0.6879 8.1009 1.6403v5.6004c-2.6727-1.2083-5.4288-2.0682-8.2729-2.0682-2.3284 0-3.6204 0.59969-3.6204 1.98 0 1.1201 0.85988 1.8917 4.3921 2.6723 6.4601 1.3803 8.6996 3.3602 8.6996 7.6684zm12.234 7.3202h-5.689v-24.562h5.689zm41.544-24.562 5.9389 11.201 1.9813 4.6523v-15.853h5.1725v24.562h-6.5497l-7.412-13.789-2.1518-4.9125v18.702h-5.2619v-24.562zm-96.52 6.8924c0 3.6204 1.6405 6.4603 8.2727 7.7523 3.8805 0.85988 4.7404 1.4596 4.7404 2.7604 0 1.301-0.85987 2.0682-3.6203 2.0682-3.1882 0-6.9807-1.1201-9.4809-2.5796v5.8606c1.98 0.94811 4.5684 2.068 9.4809 2.068 6.8923 0 9.5603-3.1 9.5603-7.5802m9e-3 0.07926c0-4.3083-2.2402-6.2883-8.7004-7.6684-3.5322-0.78059-4.3921-1.5523-4.3921-2.6679 0-1.3803 1.2921-1.98 3.6204-1.98 2.8398 0 5.6004 0.85988 8.2726 2.068v-5.6002c-1.9005-0.94811-4.7403-1.6405-8.1006-1.6405-6.3808 0-9.6485 2.7606-9.6485 7.2407m-98.037 16.32-12.89-25.779c-0.25136-0.55997-0.50272-0.65695-0.8114-0.65695-0.25136 0-0.56003 0.10579-0.85989 0.60845-1.8256 2.8883-2.637 6.2398-2.637 9.7411 0 4.8728 2.4827 9.4413 6.1383 16.792 0.40588 0.81138 0.71439 0.96582 1.42 0.96582h8.9297c0.65711 0 1.0143-0.25142 1.0143-0.76289 0-0.25143-0.0488-0.4057-0.30873-0.91732l0.0088 0.0088zm-18.724-12.175c-1.0142-1.5258-1.3229-1.6228-1.5743-1.6228s-0.4057 0.10591-0.8599 1.0143l-6.447 12.881c-0.20288 0.4057-0.25136 0.55997-0.25136 0.76288 0 0.4057 0.35721 0.81138 1.1201 0.81138h9.084c0.60857 0 1.0627-0.51161 1.3229-1.4685 0.30867-1.2171 0.4057-2.2799 0.4057-3.5542 0-3.5542-1.5743-7.0027-2.7914-8.8327z" fill="#1868db"/>
</svg>
